<?xml version="1.0" encoding="UTF-8"?>
<svg version="1.1" xmlns="http://www.w3.org/2000/svg" width="512" height="512">
<path d="M0 0 C1.01790619 0.00215515 2.03581238 0.0043103 3.08456421 0.00653076 C17.69363523 0.05620146 32.02575853 0.30709809 46.375 3.3125 C47.34985352 3.51117676 48.32470703 3.70985352 49.32910156 3.91455078 C97.7109774 14.03517194 141.69928269 35.9516877 177.375 70.3125 C178.3640332 71.26068604 178.3640332 71.26068604 179.37304688 72.22802734 C188.86130305 81.37247479 197.6012044 90.66984009 205.375 101.3125 C206.23306152 102.46355017 207.09113451 103.61459177 207.94921875 104.765625 C213.98736829 112.95680614 219.34595521 121.47054105 224.375 130.3125 C224.73948242 130.94430176 225.10396484 131.57610352 225.47949219 132.22705078 C247.08534998 169.97532572 256.85198095 212.74189997 256.6875 255.9375 C256.68534485 256.95540619 256.6831897 257.97331238 256.68096924 259.02206421 C256.63129854 273.63113523 256.38040191 287.96325853 253.375 302.3125 C253.07698486 303.77478027 253.07698486 303.77478027 252.77294922 305.26660156 C242.65232806 353.6484774 220.7358123 397.63678269 186.375 433.3125 C185.74287598 433.97185547 185.11075195 434.63121094 184.45947266 435.31054688 C175.31502521 444.79880305 166.01765991 453.5387044 155.375 461.3125 C154.22394983 462.17056152 153.07290823 463.02863451 151.921875 463.88671875 C143.73224019 469.92427396 135.22961724 475.30707302 126.375 480.3125 C125.66778809 480.7146875 124.96057617 481.116875 124.23193359 481.53125 C101.09654164 494.5566741 75.92537591 503.30551461 49.9375 508.625 C49.21860596 508.77235596 48.49971191 508.91971191 47.7590332 509.0715332 C33.08339502 511.86090125 18.55831162 512.66142619 3.64770508 512.62817383 C0.70811513 512.6250221 -2.2304558 512.64854926 -5.16992188 512.67382812 C-18.54306192 512.71848737 -31.43916711 511.51301542 -44.625 509.3125 C-46.33055054 509.03031616 -46.33055054 509.03031616 -48.07055664 508.74243164 C-91.33802759 500.97044532 -132.38793216 480.98345309 -165.625 452.3125 C-166.37007813 451.67828125 -167.11515625 451.0440625 -167.8828125 450.390625 C-181.38779833 438.57948485 -194.05918743 425.82889772 -204.625 411.3125 C-205.48149066 410.16255169 -206.33826433 409.01281411 -207.1953125 407.86328125 C-213.23534209 399.67315742 -218.61867614 391.16870382 -223.625 382.3125 C-224.0271875 381.60528809 -224.429375 380.89807617 -224.84375 380.16943359 C-237.8691741 357.03404164 -246.61801461 331.86287591 -251.9375 305.875 C-252.08485596 305.15610596 -252.23221191 304.43721191 -252.3840332 303.6965332 C-255.35789088 288.05024391 -255.99800362 272.57681954 -255.9375 256.6875 C-255.93534485 255.66959381 -255.9331897 254.65168762 -255.93096924 253.60293579 C-255.88129854 238.99386477 -255.63040191 224.66174147 -252.625 210.3125 C-252.42632324 209.33764648 -252.22764648 208.36279297 -252.02294922 207.35839844 C-241.90232806 158.9765226 -219.9858123 114.98821731 -185.625 79.3125 C-184.99287598 78.65314453 -184.36075195 77.99378906 -183.70947266 77.31445312 C-174.56502521 67.82619695 -165.26765991 59.0862956 -154.625 51.3125 C-153.47394983 50.45443848 -152.32290823 49.59636549 -151.171875 48.73828125 C-142.98224019 42.70072604 -134.47961724 37.31792698 -125.625 32.3125 C-124.91778809 31.9103125 -124.21057617 31.508125 -123.48193359 31.09375 C-100.34654164 18.0683259 -75.17537591 9.31948539 -49.1875 4 C-48.46860596 3.85264404 -47.74971191 3.70528809 -47.0090332 3.5534668 C-31.36274391 0.57960912 -15.88931954 -0.06050362 0 0 Z " fill="#009B39" transform="translate(255.625,-0.3125)"/>
<path d="M0 0 C2.32837835 1.28996841 4.52501641 2.61358014 6.75 4.0625 C7.43263916 4.49804199 8.11527832 4.93358398 8.81860352 5.38232422 C10.35994349 6.3671769 11.89894764 7.35569146 13.43603516 8.34716797 C16.19576863 10.12620012 18.96250122 11.89396433 21.73046875 13.66015625 C27.06790526 17.06791074 32.39962532 20.48450269 37.72998047 23.90332031 C42.98441782 27.27237421 48.24233454 30.63598699 53.5 34 C55.58335108 35.3333056 57.66668439 36.66663897 59.75 38 C60.78125 38.66 61.8125 39.32 62.875 40 C74.33333333 47.33333333 85.79166667 54.66666667 97.25 62 C98.28189453 62.66040283 99.31378906 63.32080566 100.37695312 64.0012207 C102.45381154 65.33042957 104.53063463 66.65969362 106.60742188 67.98901367 C111.91452872 71.38591186 117.22230424 74.78175767 122.53125 78.17578125 C140.73269627 89.81431775 140.73269627 89.81431775 149.6875 95.625 C156.847581 100.27036323 164.044095 104.85714144 171.24853516 109.43334961 C176.43335288 112.72757828 181.61314112 116.0294556 186.78515625 119.34375 C187.63483475 119.88815483 187.63483475 119.88815483 188.50167847 120.44355774 C191.26479098 122.21420747 194.02727606 123.98582743 196.7890625 125.75854492 C197.78808594 126.39896729 198.78710938 127.03938965 199.81640625 127.69921875 C201.13813843 128.54746216 201.13813843 128.54746216 202.48657227 129.4128418 C204.23597666 130.51754097 206.01872191 131.57043847 207.82397461 132.58129883 C208.54206299 133.04947021 209.26015137 133.5176416 210 134 C210 134.66 210 135.32 210 136 C207.50959739 137.65094105 205.01428248 139.18096131 202.4375 140.6875 C195.0990856 145.07094219 187.89353011 149.61831893 180.75 154.3125 C173.07632597 159.34772759 165.37580602 164.33424309 157.625 169.25 C151.23142194 173.30530061 144.84975054 177.37638122 138.5 181.5 C131.26358122 186.19736991 123.98989786 190.83453998 116.70825195 195.46142578 C106.51476409 201.93984088 96.34403673 208.45365823 86.17333984 214.96777344 C80.94966156 218.31304949 75.72477559 221.65643813 70.5 225 C68.41666075 226.33332409 66.33332742 227.66665743 64.25 229 C51.75 237 51.75 237 48.62109375 239.00244141 C46.55071022 240.32752574 44.480397 241.65271994 42.41015625 242.97802734 C37.57572597 246.07270284 32.74064759 249.16634881 27.9029541 252.25592041 C26.20010027 253.34351484 24.49747714 254.43146951 22.79492188 255.51953125 C20.66647147 256.87961989 18.53759512 258.23904228 16.40820312 259.59765625 C15.43818359 260.21769531 14.46816406 260.83773438 13.46875 261.4765625 C12.54320312 262.06469727 11.61765625 262.65283203 10.6640625 263.25878906 C8.90366178 264.40937355 7.16795302 265.5987538 5.4609375 266.82714844 C4.67976562 267.38692383 3.89859375 267.94669922 3.09375 268.5234375 C2.42021484 269.02536621 1.74667969 269.52729492 1.05273438 270.04443359 C-1.7153181 271.33298704 -3.1270552 270.91512174 -6 270 C-7.91503906 269.03881836 -7.91503906 269.03881836 -9.765625 267.83984375 C-10.47734863 267.38448242 -11.18907227 266.92912109 -11.92236328 266.45996094 C-12.6904834 265.95754883 -13.45860352 265.45513672 -14.25 264.9375 C-15.48532471 264.14327637 -15.48532471 264.14327637 -16.74560547 263.33300781 C-18.54626103 262.17480055 -20.34483951 261.0133593 -22.14160156 259.84912109 C-26.08311593 257.29932353 -30.0405915 254.77478175 -33.99707031 252.24829102 C-37.17951627 250.21517205 -40.35963201 248.17845598 -43.5390625 246.140625 C-49.85752919 242.09086311 -56.17850951 238.04503973 -62.5 234 C-64.58334516 232.66668515 -66.66667848 231.3333518 -68.75 230 C-69.78125 229.34 -70.8125 228.68 -71.875 228 C-156.25 174 -156.25 174 -159.37719727 171.99853516 C-161.45313539 170.66997371 -163.52914411 169.34152255 -165.60522461 168.01318359 C-170.9272993 164.60775777 -176.24800052 161.20021593 -181.56640625 157.7890625 C-182.64607666 157.09699707 -183.72574707 156.40493164 -184.83813477 155.69189453 C-186.96017954 154.33161354 -189.08177399 152.97062974 -191.20288086 151.60888672 C-195.8211967 148.6494051 -200.4475969 145.70911977 -205.125 142.84375 C-205.88417725 142.37759277 -206.64335449 141.91143555 -207.42553711 141.43115234 C-208.8077455 140.5863203 -210.19375604 139.74766424 -211.58422852 138.91650391 C-213.08961897 137.99700953 -214.55113746 137.00621452 -216 136 C-216 135.34 -216 134.68 -216 134 C-213.44704624 132.30728066 -210.89015742 130.73437158 -208.25 129.1875 C-201.56009494 125.18576991 -194.95783743 121.08510456 -188.4375 116.8125 C-180.92153404 111.89665598 -173.37976761 107.02405012 -165.8125 102.1875 C-164.76247803 101.51630127 -163.71245605 100.84510254 -162.63061523 100.15356445 C-160.4890527 98.78496781 -158.34736918 97.41656048 -156.20556641 96.04833984 C-150.96847478 92.70186621 -145.73436677 89.35073342 -140.5 86 C-138.41668145 84.66664356 -136.33334811 83.33331025 -134.25 82 C-132.703125 81.01 -132.703125 81.01 -131.125 80 C-71.75 42 -71.75 42 -68.62451172 39.99975586 C-66.54272321 38.66736566 -64.46101737 37.33484628 -62.37939453 36.00219727 C-57.1480983 32.65336576 -51.91535157 29.30684297 -46.6796875 25.96484375 C-45.63651367 25.29831787 -44.59333984 24.63179199 -43.51855469 23.94506836 C-41.43956057 22.61736032 -39.35949858 21.29132277 -37.27832031 19.96704102 C-31.97238427 16.58171265 -26.70837857 13.14729754 -21.4921875 9.625 C-19.91945068 8.57131226 -19.91945068 8.57131226 -18.31494141 7.49633789 C-16.31653016 6.15392893 -14.32614638 4.79946796 -12.34521484 3.43139648 C-11.4527002 2.83399658 -10.56018555 2.23659668 -9.640625 1.62109375 C-8.86235352 1.0892749 -8.08408203 0.55745605 -7.28222656 0.00952148 C-4.38221924 -1.27326952 -2.98323566 -0.95725271 0 0 Z " fill="#FCDE00" transform="translate(259,121)"/>
<path d="M0 0 C1.78108154 0.0141394 1.78108154 0.0141394 3.59814453 0.02856445 C29.96047005 0.48258831 51.6909902 11.65328659 69.953125 30.328125 C85.70870717 47.67518012 91.86707069 69.02151764 91.6875 91.9375 C91.68298828 93.04158203 91.67847656 94.14566406 91.67382812 95.28320312 C91.6621514 97.980527 91.64577525 100.67773347 91.625 103.375 C86.82685915 100.21357141 82.08215828 97.03314464 77.5 93.5625 C41.89766972 67.56636175 -3.09304588 53.10971957 -47.05273438 53.24462891 C-49.10814919 53.24995632 -51.16334205 53.24466756 -53.21875 53.23828125 C-62.31055915 53.23420859 -71.31065162 53.65801821 -80.375 54.375 C-80.59551025 55.11322998 -80.81602051 55.85145996 -81.04321289 56.61206055 C-83.25 64 -83.25 64 -84.375 67.375 C-82.93060547 67.1584375 -82.93060547 67.1584375 -81.45703125 66.9375 C-60.32014619 64.04795259 -38.48083242 64.32187276 -17.375 67.375 C-16.18028076 67.53645508 -16.18028076 67.53645508 -14.96142578 67.70117188 C6.28609868 70.69009445 28.07504163 77.85627334 46.81689453 88.36425781 C48.76884107 89.45540805 50.7400613 90.50548304 52.71484375 91.5546875 C65.47580535 98.42356184 76.51420421 107.12329406 87.625 116.375 C85.81918732 129.24141533 78.23139723 140.90332764 69.625 150.375 C68.81417969 151.27863281 68.00335938 152.18226563 67.16796875 153.11328125 C52.94285821 168.17148757 32.0771457 179.71448907 11.06054688 180.46679688 C8.12294026 180.5093122 5.18787607 180.51138712 2.25 180.5 C1.26 180.50386719 0.27 180.50773438 -0.75 180.51171875 C-22.42853936 180.48311909 -42.2472466 173.02941867 -58.375 158.375 C-59.27863281 157.56417969 -60.18226563 156.75335938 -61.11328125 155.91796875 C-77.4540921 140.48121382 -87.92477583 118.89958825 -88.61328125 96.3125 C-89.07025112 67.97628782 -81.62592259 45.83055271 -61.6875 25.1875 C-53.40200715 16.97617397 -43.84796142 11.2573581 -33.25 6.5 C-32.64188477 6.22567139 -32.03376953 5.95134277 -31.40722656 5.66870117 C-21.14133686 1.31368022 -11.098115 -0.13665295 0 0 Z " fill="#012775" transform="translate(254.375,165.625)"/>
<path d="M0 0 C0.70104858 0.00310181 1.40209717 0.00620361 2.12438965 0.00939941 C12.23706155 0.06179071 22.08794636 0.39033746 32.0625 2.25 C32.80757813 2.37890625 33.55265625 2.5078125 34.3203125 2.640625 C70.35122453 8.89679622 103.53315828 23.03451534 133 44.625 C134.03930664 45.37475098 134.03930664 45.37475098 135.09960938 46.13964844 C135.73576172 46.61692383 136.37191406 47.09419922 137.02734375 47.5859375 C137.87220337 48.21314697 137.87220337 48.21314697 138.73413086 48.85302734 C140.40199301 50.6070261 140.73612027 51.86985844 141.0625 54.25 C140.50390625 57.046875 140.50390625 57.046875 139.625 60 C139.33753906 60.98484375 139.05007813 61.9696875 138.75390625 62.984375 C138.52574219 63.73203125 138.29757812 64.4796875 138.0625 65.25 C136.4846875 64.074375 136.4846875 64.074375 134.875 62.875 C134.13121094 62.32199219 133.38742187 61.76898438 132.62109375 61.19921875 C130.86016701 59.8576883 129.12415749 58.48301901 127.41015625 57.08203125 C90.85671471 27.6375376 44.43966451 13.95170385 -2.0625 14.125 C-3.95488403 14.12790039 -3.95488403 14.12790039 -5.88549805 14.13085938 C-15.59658059 14.175528 -25.2545627 14.52410376 -34.9375 15.25 C-33.10989998 4.28439985 -33.10989998 4.28439985 -30.9375 2.25 C-20.95733742 -0.27165166 -10.21662785 -0.08111823 0 0 Z " fill="#F9FAFC" transform="translate(204.9375,217.75)"/>
</svg>
