<?xml version="1.0" encoding="UTF-8"?>
<svg version="1.1" xmlns="http://www.w3.org/2000/svg" width="512" height="512">
<path d="M0 0 C1.01790619 0.00215515 2.03581238 0.0043103 3.08456421 0.00653076 C17.69363523 0.05620146 32.02575853 0.30709809 46.375 3.3125 C47.34985352 3.51117676 48.32470703 3.70985352 49.32910156 3.91455078 C97.7109774 14.03517194 141.69928269 35.9516877 177.375 70.3125 C178.3640332 71.26068604 178.3640332 71.26068604 179.37304688 72.22802734 C188.86130305 81.37247479 197.6012044 90.66984009 205.375 101.3125 C206.23306152 102.46355017 207.09113451 103.61459177 207.94921875 104.765625 C213.98736829 112.95680614 219.34595521 121.47054105 224.375 130.3125 C224.73948242 130.94430176 225.10396484 131.57610352 225.47949219 132.22705078 C247.08534998 169.97532572 256.85198095 212.74189997 256.6875 255.9375 C256.68534485 256.95540619 256.6831897 257.97331238 256.68096924 259.02206421 C256.63129854 273.63113523 256.38040191 287.96325853 253.375 302.3125 C253.07698486 303.77478027 253.07698486 303.77478027 252.77294922 305.26660156 C242.65232806 353.6484774 220.7358123 397.63678269 186.375 433.3125 C185.74287598 433.97185547 185.11075195 434.63121094 184.45947266 435.31054688 C175.31502521 444.79880305 166.01765991 453.5387044 155.375 461.3125 C154.22394983 462.17056152 153.07290823 463.02863451 151.921875 463.88671875 C143.73224019 469.92427396 135.22961724 475.30707302 126.375 480.3125 C125.66778809 480.7146875 124.96057617 481.116875 124.23193359 481.53125 C101.09654164 494.5566741 75.92537591 503.30551461 49.9375 508.625 C49.21860596 508.77235596 48.49971191 508.91971191 47.7590332 509.0715332 C33.08339502 511.86090125 18.55831162 512.66142619 3.64770508 512.62817383 C0.70811513 512.6250221 -2.2304558 512.64854926 -5.16992188 512.67382812 C-18.54306192 512.71848737 -31.43916711 511.51301542 -44.625 509.3125 C-46.33055054 509.03031616 -46.33055054 509.03031616 -48.07055664 508.74243164 C-91.33802759 500.97044532 -132.38793216 480.98345309 -165.625 452.3125 C-166.37007813 451.67828125 -167.11515625 451.0440625 -167.8828125 450.390625 C-181.38779833 438.57948485 -194.05918743 425.82889772 -204.625 411.3125 C-205.48149066 410.16255169 -206.33826433 409.01281411 -207.1953125 407.86328125 C-213.23534209 399.67315742 -218.61867614 391.16870382 -223.625 382.3125 C-224.0271875 381.60528809 -224.429375 380.89807617 -224.84375 380.16943359 C-237.8691741 357.03404164 -246.61801461 331.86287591 -251.9375 305.875 C-252.08485596 305.15610596 -252.23221191 304.43721191 -252.3840332 303.6965332 C-255.35789088 288.05024391 -255.99800362 272.57681954 -255.9375 256.6875 C-255.93534485 255.66959381 -255.9331897 254.65168762 -255.93096924 253.60293579 C-255.88129854 238.99386477 -255.63040191 224.66174147 -252.625 210.3125 C-252.42632324 209.33764648 -252.22764648 208.36279297 -252.02294922 207.35839844 C-241.90232806 158.9765226 -219.9858123 114.98821731 -185.625 79.3125 C-184.99287598 78.65314453 -184.36075195 77.99378906 -183.70947266 77.31445312 C-174.56502521 67.82619695 -165.26765991 59.0862956 -154.625 51.3125 C-153.47394983 50.45443848 -152.32290823 49.59636549 -151.171875 48.73828125 C-142.98224019 42.70072604 -134.47961724 37.31792698 -125.625 32.3125 C-124.91778809 31.9103125 -124.21057617 31.508125 -123.48193359 31.09375 C-100.34654164 18.0683259 -75.17537591 9.31948539 -49.1875 4 C-48.46860596 3.85264404 -47.74971191 3.70528809 -47.0090332 3.5534668 C-31.36274391 0.57960912 -15.88931954 -0.06050362 0 0 Z " fill="#FF2147" transform="translate(255.625,-0.3125)"/>
<path d="M0 0 C5.60657752 3.07168874 10.78976788 6.55160981 16 10.25 C17.7809771 11.50559551 19.56223843 12.76078793 21.34375 14.015625 C22.26929688 14.66853516 23.19484375 15.32144531 24.1484375 15.99414062 C28.91837815 19.34943449 33.70985044 22.67365299 38.5 26 C49.83164076 33.87621435 61.13753254 41.78881936 72.43847656 49.70898438 C80.1751003 55.13049378 87.91282343 60.55031421 95.66796875 65.9453125 C97.10789185 66.94715576 97.10789185 66.94715576 98.5769043 67.96923828 C100.51565675 69.3161474 102.45591051 70.66089828 104.39770508 72.00341797 C109.19226875 75.32319967 113.95174227 78.67852219 118.65625 82.125 C119.55666016 82.77726562 120.45707031 83.42953125 121.38476562 84.1015625 C123.08088522 85.33280092 124.76777031 86.57690175 126.44335938 87.8359375 C129.94372251 90.36117831 132.31041975 91.8845735 136.6171875 92.60546875 C140.63288227 91.8867243 143.68636873 90.40372748 147.125 88.3125 C147.81110352 87.91095703 148.49720703 87.50941406 149.20410156 87.09570312 C151.48254237 85.75114927 153.74300138 84.38022327 156 83 C157.15677246 82.29302979 157.15677246 82.29302979 158.33691406 81.57177734 C162.61515614 78.94661164 166.87814417 76.29754843 171.13671875 73.640625 C177.58148277 69.62682905 184.06952746 65.68508401 190.5625 61.75 C191.1496579 61.39400726 191.7368158 61.03801453 192.34176636 60.67123413 C195.3492559 58.84781821 198.35711621 57.02501538 201.36523438 55.20263672 C208.52333802 50.86563695 215.67675762 46.52090846 222.83007812 42.17602539 C223.4045166 41.82711746 223.97895508 41.47820953 224.57080078 41.11872864 C226.27962758 40.08078857 227.98844664 39.04283576 229.69726562 38.00488281 C232.86474899 36.0821024 236.03376543 34.16187326 239.203125 32.2421875 C241.15645784 31.05763433 243.10958876 29.87274811 245.0625 28.6875 C246.44985352 27.84578247 246.44985352 27.84578247 247.86523438 26.98706055 C255.05477432 22.61001234 262.17430604 18.1271171 269.24047852 13.5534668 C269.97194092 13.08465088 270.70340332 12.61583496 271.45703125 12.1328125 C272.09616455 11.71918457 272.73529785 11.30555664 273.39379883 10.87939453 C275 10 275 10 277 10 C277.09357926 28.99366741 277.16404569 47.98728782 277.20724869 66.98113823 C277.22784476 75.8009806 277.25590862 84.62067945 277.30175781 93.44042969 C277.34171633 101.13071102 277.36745428 108.82088837 277.37635398 116.51127064 C277.38155353 120.58061102 277.39371211 124.64965402 277.42292023 128.71889877 C277.45023218 132.55534606 277.45841348 136.39137572 277.45243073 140.227911 C277.45352396 141.62988371 277.46138371 143.03187155 277.4768219 144.43375969 C277.58896537 155.14999325 276.30237467 164.3665435 268.7734375 172.46875 C265.53027595 175.26901284 261.87066017 177.20266736 258 179 C257.32148357 179.34599558 256.64296715 179.69199116 255.94388962 180.04847145 C251.8181565 181.38199728 247.96208042 181.28256189 243.65167236 181.26742554 C242.70636618 181.27195665 241.76106 181.27648776 240.78710818 181.28115618 C237.61746262 181.29382297 234.44798839 181.29217832 231.27832031 181.29052734 C229.00649799 181.29651121 226.73467771 181.30331643 224.46286011 181.31088257 C218.28918421 181.32856534 212.11556374 181.33323895 205.94186497 181.33451414 C200.78788566 181.33641281 195.63391928 181.34377008 190.47994494 181.35085833 C179.01339056 181.36621834 167.54687227 181.37219548 156.08031026 181.37084763 C155.04862309 181.37072776 155.04862309 181.37072776 153.99609375 181.37060547 C152.96314226 181.37048283 152.96314226 181.37048283 151.90932307 181.37035771 C140.75443829 181.36954518 129.59968866 181.3886748 118.44484296 181.4168822 C106.98290837 181.44563667 95.52106701 181.4590551 84.05909038 181.45769465 C77.62739817 181.45718484 71.19585886 181.46287868 64.7641983 181.48405075 C58.71324848 181.50342523 52.66259752 181.5035627 46.61163712 181.48901749 C44.39330483 181.48692725 42.17495389 181.49164301 39.95665359 181.5037384 C36.92283975 181.51920622 33.89005438 181.50987197 30.85626221 181.49447632 C29.98318837 181.50476344 29.11011454 181.51505057 28.21058393 181.52564943 C18.87608231 181.42132788 10.73484673 177.41133881 4 171 C-0.8452896 164.85115533 -3.24849194 158.54126002 -3.25396729 150.66896057 C-3.26242676 148.79119934 -3.26242676 148.79119934 -3.27105713 146.87550354 C-3.2671691 145.50106753 -3.2630728 144.1266321 -3.25878906 142.75219727 C-3.2615012 141.29470648 -3.26506338 139.83721706 -3.26940918 138.37973022 C-3.27850982 134.43136001 -3.27499832 130.48309457 -3.26865101 126.53472257 C-3.26357801 122.39667563 -3.26828617 118.25863751 -3.27142334 114.12059021 C-3.2750596 107.17111607 -3.27027323 100.22168447 -3.26074219 93.2722168 C-3.24986257 85.24696616 -3.25338099 77.22181719 -3.264395 69.19656903 C-3.27348267 62.29787311 -3.27474578 55.39920774 -3.26951766 48.50050777 C-3.26640555 44.38395869 -3.26596765 40.26745732 -3.27259064 36.15091133 C-3.27838486 32.27916222 -3.27432932 28.40754363 -3.26280212 24.53580856 C-3.26016644 23.11808298 -3.26090191 21.70034633 -3.26532745 20.2826252 C-3.30333936 6.86425794 -3.30333936 6.86425794 -1 1 C-0.67 0.67 -0.34 0.34 0 0 Z " fill="#FFFEFE" transform="translate(119,174)"/>
<path d="M0 0 C0.93880821 -0.00367669 1.87761642 -0.00735338 2.84487337 -0.01114148 C6.00453348 -0.02219313 9.16416072 -0.0260247 12.32383728 -0.02983093 C14.5838888 -0.03609455 16.84393929 -0.04274126 19.10398865 -0.04974365 C25.25510913 -0.06716473 31.40622184 -0.07770882 37.55736089 -0.08594918 C41.40029679 -0.09109786 45.24323028 -0.09717371 49.08616447 -0.10346031 C59.73114943 -0.12033256 70.37613096 -0.1349664 81.02112675 -0.14220905 C83.78332584 -0.14411888 86.54552493 -0.14603922 89.307724 -0.147995 C90.3374926 -0.14872061 90.3374926 -0.14872061 91.38806462 -0.14946087 C102.50036212 -0.1577549 113.61255176 -0.18308056 124.7248022 -0.21557567 C136.14033989 -0.24868467 147.55579719 -0.26632888 158.9713878 -0.26985329 C165.37800098 -0.27220354 171.78444375 -0.28116083 178.19101143 -0.30631447 C184.22140541 -0.32960786 190.25151695 -0.33382309 196.28194427 -0.32355309 C198.49179715 -0.3230579 200.70166399 -0.32937311 202.91147423 -0.34310913 C205.9362736 -0.36085443 208.96006229 -0.35370841 211.98486328 -0.34057617 C212.85249756 -0.35154542 213.72013185 -0.36251466 214.61405808 -0.37381631 C221.99653272 -0.29681824 228.87721525 1.52460604 234.56187439 6.39717102 C235.01562439 6.97467102 235.46937439 7.55217102 235.93687439 8.14717102 C223.12920573 16.24145851 210.17712609 24.09544764 197.21908569 31.94548035 C191.51609828 35.40074571 185.81940589 38.86630913 180.12437439 42.33467102 C179.1918988 42.90242249 178.25942322 43.47017395 177.2986908 44.05513 C174.51132577 45.75232452 171.72407999 47.4497147 168.93687439 49.14717102 C156.95115861 56.4466788 144.96309304 63.74229866 132.96846008 71.02714539 C131.75944378 71.76145467 130.55047795 72.49584707 129.34156799 73.23033142 C122.21934591 77.55724659 115.08847711 81.86897106 107.93687439 86.14717102 C102.33029687 83.07548228 97.14710651 79.59556121 91.93687439 75.89717102 C90.15589729 74.64157551 88.37463596 73.38638309 86.59312439 72.13154602 C85.66757751 71.47863586 84.74203064 70.82572571 83.78843689 70.1530304 C79.01849624 66.79773653 74.22702394 63.47351803 69.43687439 60.14717102 C59.73964351 53.40697596 50.05978031 46.64235554 40.38853455 39.86494446 C36.23901011 36.95755012 32.0878515 34.05249077 27.93687439 31.14717102 C26.2832209 29.98962987 24.62957508 28.83207777 22.97593689 27.67451477 C22.15254822 27.0981427 21.32915955 26.52177063 20.4808197 25.92793274 C2.58531189 13.40107727 2.58531189 13.40107727 0.31480408 11.8039093 C-1.40421529 10.60624344 -3.13418948 9.42424947 -4.8707428 8.25215149 C-5.7875885 7.62840637 -6.7044342 7.00466125 -7.64906311 6.36201477 C-8.49259338 5.7947467 -9.33612366 5.22747864 -10.20521545 4.64302063 C-10.81832581 4.14939026 -11.43143616 3.65575989 -12.06312561 3.14717102 C-12.06312561 2.48717102 -12.06312561 1.82717102 -12.06312561 1.14717102 C-8.0491386 -0.19082465 -4.18576001 -0.0008737 0 0 Z " fill="#FFFDFD" transform="translate(149.06312561035156,156.8528289794922)"/>
</svg>
